<svg xmlns="http://www.w3.org/2000/svg" width="1200" height="630" viewBox="0 0 1200 630">
  <defs>
    <linearGradient id="bg" x1="0" y1="0" x2="0" y2="1">
      <stop offset="0" stop-color="#26282b"></stop>
      <stop offset="1" stop-color="#1a1d20"></stop>
    </linearGradient>
    <radialGradient id="glow" cx="0.5" cy="0.52" r="0.35">
      <stop offset="0" stop-color="#c2662d" stop-opacity="0.16"></stop>
      <stop offset="1" stop-color="#c2662d" stop-opacity="0"></stop>
    </radialGradient>
  </defs>
  <rect width="1200" height="630" fill="url(#bg)"></rect>
  <rect width="1200" height="630" fill="url(#glow)"></rect>

  
  <g transform="translate(600 180) scale(1.6) translate(-48 -48)">
    <path d="M48 8 C 52 20, 60 32, 66 46 C 72 60, 74 70, 72 78 L 62 72 C 59 70, 55 70, 52 73 L 48 78 L 44 73 C 41 70, 37 70, 34 72 L 24 78 C 22 70, 24 60, 30 46 C 36 32, 44 20, 48 8 Z" fill="#c2662d"></path>
    <path d="M48 32 C 50 40, 54 48, 56 56 C 57 62, 56 66, 54 68 L 50 64 C 49 63, 47 63, 46 64 L 42 68 C 40 66, 39 62, 40 56 C 42 48, 46 40, 48 32 Z" fill="#e08a4f"></path>
  </g>

  
  <text x="600" y="430" text-anchor="middle" font-family="Geist, ui-sans-serif, system-ui, -apple-system, sans-serif" font-size="84" font-weight="500" letter-spacing="-2">
    <tspan fill="#f3f4f6">Forge</tspan><tspan fill="#c2662d">DS</tspan>
  </text>

  
  <text x="600" y="486" text-anchor="middle" font-family="Geist Mono, ui-monospace, monospace" font-size="18" fill="#6b7280" letter-spacing="3">DEVELOPMENT ENGINE FOR ZOHO CREATOR</text>

  
  <text x="60" y="580" font-family="Geist Mono, ui-monospace, monospace" font-size="13" fill="#4b5563" letter-spacing="1">github.com/HolgerRGevers/ForgeDS</text>
</svg>